<svg xmlns="http://www.w3.org/2000/svg" width="900" height="420" viewBox="0 0 900 420">
<style>text{font-family:Arial,sans-serif;font-size:12px} .axis{stroke:#333;stroke-width:1} .grid{stroke:#ddd;stroke-width:1} .label{fill:#111} .legend{font-size:12px}</style>
<rect x="0" y="0" width="900" height="420" fill="white"/>
<line class="grid" x1="70.0" y1="30" x2="70.0" y2="365"/>
<text class="label" x="70.0" y="385" text-anchor="middle">0.00</text>
<line class="grid" x1="272.5" y1="30" x2="272.5" y2="365"/>
<text class="label" x="272.5" y="385" text-anchor="middle">0.25</text>
<line class="grid" x1="475.0" y1="30" x2="475.0" y2="365"/>
<text class="label" x="475.0" y="385" text-anchor="middle">0.50</text>
<line class="grid" x1="677.5" y1="30" x2="677.5" y2="365"/>
<text class="label" x="677.5" y="385" text-anchor="middle">0.75</text>
<line class="grid" x1="880.0" y1="30" x2="880.0" y2="365"/>
<text class="label" x="880.0" y="385" text-anchor="middle">1.00</text>
<line class="grid" x1="70" y1="365.0" x2="880" y2="365.0"/>
<text class="label" x="60" y="369.0" text-anchor="end">0.0</text>
<line class="grid" x1="70" y1="281.2" x2="880" y2="281.2"/>
<text class="label" x="60" y="285.2" text-anchor="end">0.5</text>
<line class="grid" x1="70" y1="197.5" x2="880" y2="197.5"/>
<text class="label" x="60" y="201.5" text-anchor="end">1.0</text>
<line class="grid" x1="70" y1="113.8" x2="880" y2="113.8"/>
<text class="label" x="60" y="117.8" text-anchor="end">1.5</text>
<line class="grid" x1="70" y1="30.0" x2="880" y2="30.0"/>
<text class="label" x="60" y="34.0" text-anchor="end">2.0</text>
<line class="axis" x1="70" y1="365" x2="880" y2="365"/>
<line class="axis" x1="70" y1="30" x2="70" y2="365"/>
<text class="label" x="475.0" y="405" text-anchor="middle">Structure Score</text>
<text class="label" x="20" y="197.5" transform="rotate(-90 20 197.5)" text-anchor="middle">Compression Ratio</text>
<text class="label" x="450.0" y="20" text-anchor="middle">Structure vs Compression Ratio</text>
<circle cx="720" cy="40" r="5" fill="#111827"/>
<text class="legend" x="730" y="44" fill="#111">LZW</text>
<circle cx="800" cy="40" r="5" fill="#6b7280"/>
<text class="legend" x="810" y="44" fill="#111">LZSS</text>
<circle cx="739.2" cy="302.2" r="5" fill="#111827"><title>image/synthetic/grid LZW=0.375</title></circle>
<rect x="735.2" y="307.1" width="8" height="8" fill="#6b7280"><title>image/synthetic/grid LZSS=0.322</title></rect>
<line x1="739.2" y1="302.2" x2="739.2" y2="311.1" stroke="#2563eb" stroke-width="1.5" opacity="0.7"/>
<circle cx="790.1" cy="347.6" r="5" fill="#111827"><title>image/synthetic_structured/checkerboard LZW=0.104</title></circle>
<rect x="786.1" y="336.0" width="8" height="8" fill="#6b7280"><title>image/synthetic_structured/checkerboard LZSS=0.149</title></rect>
<line x1="790.1" y1="347.6" x2="790.1" y2="340.0" stroke="#2563eb" stroke-width="1.5" opacity="0.7"/>
<circle cx="682.5" cy="340.5" r="5" fill="#111827"><title>image/synthetic_structured/periodic_gradient LZW=0.146</title></circle>
<rect x="678.5" y="335.4" width="8" height="8" fill="#6b7280"><title>image/synthetic_structured/periodic_gradient LZSS=0.153</title></rect>
<line x1="682.5" y1="340.5" x2="682.5" y2="339.4" stroke="#2563eb" stroke-width="1.5" opacity="0.7"/>
<circle cx="729.5" cy="338.4" r="5" fill="#111827"><title>image/synthetic_structured/stripes_blocks LZW=0.159</title></circle>
<rect x="725.5" y="334.9" width="8" height="8" fill="#6b7280"><title>image/synthetic_structured/stripes_blocks LZSS=0.156</title></rect>
<line x1="729.5" y1="338.4" x2="729.5" y2="338.9" stroke="#2563eb" stroke-width="1.5" opacity="0.7"/>
<circle cx="231.8" cy="138.0" r="5" fill="#111827"><title>image/synthetic_unstructured/noise_a LZW=1.355</title></circle>
<rect x="227.8" y="172.6" width="8" height="8" fill="#6b7280"><title>image/synthetic_unstructured/noise_a LZSS=1.125</title></rect>
<line x1="231.8" y1="138.0" x2="231.8" y2="176.6" stroke="#2563eb" stroke-width="1.5" opacity="0.7"/>
<circle cx="231.4" cy="157.5" r="5" fill="#111827"><title>image/synthetic_unstructured/noise_b LZW=1.239</title></circle>
<rect x="227.4" y="172.6" width="8" height="8" fill="#6b7280"><title>image/synthetic_unstructured/noise_b LZSS=1.125</title></rect>
<line x1="231.4" y1="157.5" x2="231.4" y2="176.6" stroke="#2563eb" stroke-width="1.5" opacity="0.7"/>
<circle cx="233.3" cy="136.5" r="5" fill="#111827"><title>image/synthetic_unstructured/noise_c LZW=1.364</title></circle>
<rect x="229.3" y="172.6" width="8" height="8" fill="#6b7280"><title>image/synthetic_unstructured/noise_c LZSS=1.125</title></rect>
<line x1="233.3" y1="136.5" x2="233.3" y2="176.6" stroke="#2563eb" stroke-width="1.5" opacity="0.7"/>
<circle cx="329.0" cy="252.4" r="5" fill="#111827"><title>audio/synthetic/tone LZW=0.672</title></circle>
<rect x="325.0" y="305.6" width="8" height="8" fill="#6b7280"><title>audio/synthetic/tone LZSS=0.331</title></rect>
<line x1="329.0" y1="252.4" x2="329.0" y2="309.6" stroke="#dc2626" stroke-width="1.5" opacity="0.7"/>
<circle cx="249.3" cy="257.6" r="5" fill="#111827"><title>audio/synthetic_structured/periodic_wave LZW=0.641</title></circle>
<rect x="245.3" y="286.1" width="8" height="8" fill="#6b7280"><title>audio/synthetic_structured/periodic_wave LZSS=0.447</title></rect>
<line x1="249.3" y1="257.6" x2="249.3" y2="290.1" stroke="#dc2626" stroke-width="1.5" opacity="0.7"/>
<circle cx="328.1" cy="313.6" r="5" fill="#111827"><title>audio/synthetic_structured/repeated_tone LZW=0.307</title></circle>
<rect x="324.1" y="334.7" width="8" height="8" fill="#6b7280"><title>audio/synthetic_structured/repeated_tone LZSS=0.157</title></rect>
<line x1="328.1" y1="313.6" x2="328.1" y2="338.7" stroke="#dc2626" stroke-width="1.5" opacity="0.7"/>
<circle cx="502.2" cy="315.9" r="5" fill="#111827"><title>audio/synthetic_structured/tone_with_silence LZW=0.293</title></circle>
<rect x="498.2" y="322.3" width="8" height="8" fill="#6b7280"><title>audio/synthetic_structured/tone_with_silence LZSS=0.231</title></rect>
<line x1="502.2" y1="315.9" x2="502.2" y2="326.3" stroke="#dc2626" stroke-width="1.5" opacity="0.7"/>
<circle cx="128.0" cy="99.3" r="5" fill="#111827"><title>audio/synthetic_unstructured/white_noise_a LZW=1.586</title></circle>
<rect x="124.0" y="172.6" width="8" height="8" fill="#6b7280"><title>audio/synthetic_unstructured/white_noise_a LZSS=1.125</title></rect>
<line x1="128.0" y1="99.3" x2="128.0" y2="176.6" stroke="#dc2626" stroke-width="1.5" opacity="0.7"/>
<circle cx="127.8" cy="98.5" r="5" fill="#111827"><title>audio/synthetic_unstructured/white_noise_b LZW=1.591</title></circle>
<rect x="123.8" y="172.6" width="8" height="8" fill="#6b7280"><title>audio/synthetic_unstructured/white_noise_b LZSS=1.125</title></rect>
<line x1="127.8" y1="98.5" x2="127.8" y2="176.6" stroke="#dc2626" stroke-width="1.5" opacity="0.7"/>
<circle cx="127.9" cy="99.0" r="5" fill="#111827"><title>audio/synthetic_unstructured/white_noise_c LZW=1.588</title></circle>
<rect x="123.9" y="172.6" width="8" height="8" fill="#6b7280"><title>audio/synthetic_unstructured/white_noise_c LZSS=1.125</title></rect>
<line x1="127.9" y1="99.0" x2="127.9" y2="176.6" stroke="#dc2626" stroke-width="1.5" opacity="0.7"/>
</svg>