<svg xmlns="http://www.w3.org/2000/svg" width="900" height="420" viewBox="0 0 900 420">
<style>text{font-family:Arial,sans-serif;font-size:12px} .axis{stroke:#333;stroke-width:1} .grid{stroke:#ddd;stroke-width:1} .label{fill:#111} .legend{font-size:12px}</style>
<rect x="0" y="0" width="900" height="420" fill="white"/>
<line class="grid" x1="70.0" y1="30" x2="70.0" y2="365"/>
<text class="label" x="70.0" y="385" text-anchor="middle">0.00</text>
<line class="grid" x1="272.5" y1="30" x2="272.5" y2="365"/>
<text class="label" x="272.5" y="385" text-anchor="middle">0.25</text>
<line class="grid" x1="475.0" y1="30" x2="475.0" y2="365"/>
<text class="label" x="475.0" y="385" text-anchor="middle">0.50</text>
<line class="grid" x1="677.5" y1="30" x2="677.5" y2="365"/>
<text class="label" x="677.5" y="385" text-anchor="middle">0.75</text>
<line class="grid" x1="880.0" y1="30" x2="880.0" y2="365"/>
<text class="label" x="880.0" y="385" text-anchor="middle">1.00</text>
<line class="grid" x1="70" y1="365.0" x2="880" y2="365.0"/>
<text class="label" x="60" y="369.0" text-anchor="end">0.0</text>
<line class="grid" x1="70" y1="281.2" x2="880" y2="281.2"/>
<text class="label" x="60" y="285.2" text-anchor="end">0.5</text>
<line class="grid" x1="70" y1="197.5" x2="880" y2="197.5"/>
<text class="label" x="60" y="201.5" text-anchor="end">1.0</text>
<line class="grid" x1="70" y1="113.8" x2="880" y2="113.8"/>
<text class="label" x="60" y="117.8" text-anchor="end">1.5</text>
<line class="grid" x1="70" y1="30.0" x2="880" y2="30.0"/>
<text class="label" x="60" y="34.0" text-anchor="end">2.0</text>
<line class="axis" x1="70" y1="365" x2="880" y2="365"/>
<line class="axis" x1="70" y1="30" x2="70" y2="365"/>
<text class="label" x="475.0" y="405" text-anchor="middle">Structure Score</text>
<text class="label" x="20" y="197.5" transform="rotate(-90 20 197.5)" text-anchor="middle">Compression Ratio</text>
<text class="label" x="450.0" y="20" text-anchor="middle">Structure vs Compression Ratio</text>
<circle cx="720" cy="40" r="5" fill="#111827"/>
<text class="legend" x="730" y="44" fill="#111">LZW</text>
<circle cx="800" cy="40" r="5" fill="#6b7280"/>
<text class="legend" x="810" y="44" fill="#111">LZSS</text>
<circle cx="492.1" cy="222.8" r="5" fill="#111827"><title>text/public_samples/sample_news LZW=0.849</title></circle>
<rect x="488.1" y="188.6" width="8" height="8" fill="#6b7280"><title>text/public_samples/sample_news LZSS=1.029</title></rect>
<line x1="492.1" y1="222.8" x2="492.1" y2="192.6" stroke="#059669" stroke-width="1.5" opacity="0.7"/>
<circle cx="638.2" cy="280.2" r="5" fill="#111827"><title>text/synthetic_structured/pattern_blocks LZW=0.506</title></circle>
<rect x="634.2" y="306.7" width="8" height="8" fill="#6b7280"><title>text/synthetic_structured/pattern_blocks LZSS=0.324</title></rect>
<line x1="638.2" y1="280.2" x2="638.2" y2="310.7" stroke="#059669" stroke-width="1.5" opacity="0.7"/>
<circle cx="504.9" cy="251.3" r="5" fill="#111827"><title>text/synthetic_structured/repeated_phrases LZW=0.679</title></circle>
<rect x="500.9" y="281.8" width="8" height="8" fill="#6b7280"><title>text/synthetic_structured/repeated_phrases LZSS=0.473</title></rect>
<line x1="504.9" y1="251.3" x2="504.9" y2="285.8" stroke="#059669" stroke-width="1.5" opacity="0.7"/>
<circle cx="421.4" cy="196.2" r="5" fill="#111827"><title>text/synthetic_unstructured/random_chars LZW=1.008</title></circle>
<rect x="417.4" y="173.7" width="8" height="8" fill="#6b7280"><title>text/synthetic_unstructured/random_chars LZSS=1.118</title></rect>
<line x1="421.4" y1="196.2" x2="421.4" y2="177.7" stroke="#059669" stroke-width="1.5" opacity="0.7"/>
<circle cx="493.4" cy="221.5" r="5" fill="#111827"><title>text/synthetic_unstructured/random_words LZW=0.857</title></circle>
<rect x="489.4" y="190.8" width="8" height="8" fill="#6b7280"><title>text/synthetic_unstructured/random_words LZSS=1.016</title></rect>
<line x1="493.4" y1="221.5" x2="493.4" y2="194.8" stroke="#059669" stroke-width="1.5" opacity="0.7"/>
</svg>